<svg width="8" height="15" viewBox="0 0 8 15" fill="none" xmlns="http://www.w3.org/2000/svg">
<path d="M5.24523 7.48496C5.24523 10.0321 5.24523 12.5015 5.24523 15C4.05591 15 2.91741 15 1.71792 15C1.71792 12.5209 1.71792 10.0418 1.71792 7.52385C1.12834 7.52385 0.579416 7.52385 0 7.52385C0 6.64888 0 5.83224 0 4.95726C0.426938 4.95726 0.84371 4.93782 1.26048 4.95726C1.58577 4.97671 1.71792 4.86004 1.69759 4.53922C1.67726 3.98507 1.68742 3.44065 1.68742 2.8865C1.70775 1.28238 2.59212 0.212971 4.26938 0.05742C5.46887 -0.0592429 6.69886 0.0379762 7.94917 0.0379762C7.94917 0.835173 7.94917 1.66154 7.94917 2.5754C7.44092 2.5754 6.92249 2.5754 6.40407 2.5754C5.49936 2.58512 5.2554 2.81844 5.2554 3.67397C5.2554 4.07257 5.2554 4.48089 5.2554 4.93782C6.1906 4.93782 7.08513 4.93782 8 4.93782C7.87802 5.81279 7.7662 6.62943 7.65438 7.47524C6.87167 7.48496 6.09911 7.48496 5.24523 7.48496Z" fill="#363D41"/>
</svg>
