<svg width="15" height="15" viewBox="0 0 15 15" fill="none" xmlns="http://www.w3.org/2000/svg">
<path d="M5.0752 4.61305C6.13409 4.61305 7.16138 4.61305 8.23608 4.61305C8.23608 5.02382 8.23608 5.41879 8.23608 5.93226C8.39413 5.79007 8.48105 5.73477 8.53637 5.66368C9.54785 4.41556 10.8754 4.17858 12.3452 4.52616C13.7834 4.86583 14.55 5.88486 14.866 7.26726C14.953 7.66224 14.9846 8.07301 14.9846 8.48378C15.0004 10.1822 14.9767 11.8805 15.0004 13.5789C15.0083 13.966 14.8818 14.0766 14.5104 14.0608C13.7834 14.0371 13.0643 14.0292 12.3373 14.0608C11.9501 14.0766 11.8158 13.9739 11.8237 13.5631C11.8474 12.1175 11.8395 10.664 11.8316 9.21843C11.8316 8.92615 11.8158 8.64177 11.7763 8.35739C11.6498 7.36206 10.994 6.7696 10.0694 6.8012C9.05001 6.84069 8.26769 7.58324 8.25979 8.57067C8.24398 10.2138 8.25189 11.8647 8.25189 13.5078C8.25189 13.6658 8.25189 13.8238 8.25189 14.0134C7.18509 14.0134 6.14199 14.0134 5.0831 14.0134C5.0752 10.8852 5.0752 7.76493 5.0752 4.61305Z" fill="#363D41"/>
<path d="M0.254883 4.61328C1.31378 4.61328 2.34107 4.61328 3.39996 4.61328C3.40787 4.75547 3.42367 4.88186 3.42367 5.00825C3.42367 7.87575 3.41577 10.7432 3.43157 13.6107C3.43157 13.9504 3.34465 14.0689 2.98905 14.061C2.21463 14.0373 1.43231 14.0531 0.657896 14.0531C0.53146 14.0531 0.405025 14.0373 0.254883 14.0294C0.254883 10.8775 0.254883 7.76516 0.254883 4.61328Z" fill="#363D41"/>
<path d="M1.85116 0C2.54655 0 3.13132 0.229084 3.44741 0.876838C3.73189 1.4456 3.68447 2.03016 3.27356 2.54362C2.78362 3.14398 2.11983 3.30197 1.39283 3.16768C0.507783 2.98599 -0.0848833 2.21974 0.00994326 1.4219C0.120574 0.552961 0.839676 0 1.85116 0Z" fill="#363D41"/>
</svg>
