<svg width="16" height="15" viewBox="0 0 16 15" fill="none" xmlns="http://www.w3.org/2000/svg">
<path d="M7.81803 7.11785C9.42762 7.11785 11.0372 7.11785 12.6527 7.11785C14.4274 7.11785 15.6478 8.35011 15.642 10.1248C15.642 10.9502 15.6891 11.7816 15.583 12.5952C15.4002 13.9984 14.221 14.9831 12.8001 14.9889C9.48069 15.0007 6.16127 15.0066 2.84185 14.9889C1.21457 14.9831 0 13.7036 0 12.0763C0 11.3983 0 10.7203 0 10.0422C0 8.3678 1.24405 7.12375 2.92439 7.11785C4.55757 7.11196 6.18485 7.11785 7.81803 7.11785ZM8.94415 13.0728C9.0208 13.1258 9.05618 13.1553 9.09155 13.1848C9.38045 13.4029 9.69884 13.4737 10.029 13.3145C10.3356 13.1612 10.3828 12.8664 10.3828 12.5598C10.3828 12.2355 10.3828 11.9113 10.3828 11.587C10.3828 11.1448 10.3887 10.7026 10.3769 10.2604C10.3651 9.9656 10.2766 9.68849 9.98184 9.55288C9.67525 9.41138 9.38635 9.47034 9.12693 9.6767C9.07386 9.71797 9.0208 9.75334 8.91467 9.82999C8.91467 9.2404 8.91467 8.70976 8.91467 8.18502C8.64346 8.18502 8.41352 8.18502 8.18358 8.18502C8.18358 9.91843 8.18358 11.6224 8.18358 13.3381C8.43121 13.3381 8.66115 13.3381 8.89699 13.3381C8.90878 13.2496 8.92057 13.1848 8.94415 13.0728ZM13.1126 11.5044C13.1126 11.0976 13.1362 10.7321 13.1067 10.3724C13.0477 9.73566 12.6409 9.39959 11.9924 9.41727C11.3261 9.44086 10.8721 9.85947 10.8603 10.4844C10.8485 11.1094 10.8485 11.7403 10.8603 12.3711C10.878 13.1022 11.3969 13.5209 12.1457 13.4383C12.8532 13.3558 13.2128 12.8605 13.0949 12.1235C12.8591 12.1235 12.6232 12.1235 12.3756 12.1235C12.3697 12.2355 12.3579 12.3181 12.3579 12.4065C12.352 12.6424 12.2695 12.8133 11.9983 12.8133C11.7329 12.8192 11.6386 12.6424 11.6268 12.4124C11.615 12.1943 11.6327 11.982 11.615 11.7639C11.6032 11.5634 11.674 11.4868 11.8803 11.4926C12.2813 11.5162 12.6822 11.5044 13.1126 11.5044ZM7.50554 13.3322C7.50554 12.0646 7.50554 10.8028 7.50554 9.54699C7.25791 9.54699 7.03976 9.54699 6.79803 9.54699C6.79803 9.97739 6.79803 10.3901 6.79803 10.8028C6.79803 11.304 6.80393 11.8051 6.79803 12.3063C6.79213 12.5185 6.50323 12.7603 6.29098 12.7426C6.02566 12.7131 6.07872 12.5009 6.07872 12.3358C6.07283 11.5339 6.07872 10.7262 6.07872 9.92433C6.07872 9.80051 6.07872 9.6767 6.07872 9.55878C5.80751 9.55878 5.57757 9.55878 5.33583 9.55878C5.33583 10.6672 5.32404 11.7462 5.34173 12.8251C5.34763 13.3204 5.68369 13.5326 6.14358 13.3499C6.36173 13.2614 6.56219 13.114 6.78624 12.9843C6.79803 13.1081 6.80982 13.2202 6.82161 13.344C7.04566 13.3322 7.26381 13.3322 7.50554 13.3322ZM4.91722 8.17913C4.02104 8.17913 3.14844 8.17913 2.27584 8.17913C2.27584 8.42086 2.27584 8.63311 2.27584 8.88074C2.57653 8.88074 2.85954 8.88074 3.17202 8.88074C3.17202 10.3842 3.17202 11.8582 3.17202 13.3263C3.46682 13.3263 3.72624 13.3263 4.01514 13.3263C4.01514 13.2025 4.01514 13.0963 4.01514 12.9902C4.01514 11.7226 4.02104 10.455 4.00925 9.18733C4.00925 8.92202 4.08589 8.83358 4.34531 8.86306C4.52809 8.88074 4.71676 8.86895 4.92312 8.86895C4.91722 8.62132 4.91722 8.40317 4.91722 8.17913Z" fill="#363D41"/>
<path d="M8.99127 3.68033C8.99127 4.08125 9.00896 4.48218 8.98538 4.8831C8.9559 5.38426 8.64931 5.7616 8.15994 5.86183C7.88873 5.91489 7.59393 5.92668 7.31682 5.87951C6.73902 5.77928 6.39116 5.35478 6.37937 4.76518C6.36757 4.0105 6.37347 3.25582 6.37937 2.50114C6.38526 2.02946 6.6211 1.69929 7.0574 1.52831C7.44653 1.37501 7.84746 1.35732 8.23659 1.49293C8.69058 1.65212 8.97948 1.9705 8.99127 2.47166C9.00306 2.87258 8.99127 3.27351 8.99127 3.68033C8.99717 3.68033 8.99717 3.68033 8.99127 3.68033ZM7.33451 3.62726C7.33451 3.99871 7.33451 4.37015 7.33451 4.7416C7.33451 4.98333 7.42295 5.14842 7.68827 5.14252C7.94769 5.13663 8.04792 4.98333 8.04792 4.7416C8.04792 4.0164 8.04792 3.29119 8.04792 2.56599C8.04792 2.31836 7.93 2.20634 7.68827 2.20634C7.44653 2.20634 7.32861 2.32426 7.32861 2.56599C7.34041 2.91975 7.33451 3.27351 7.33451 3.62726Z" fill="#363D41"/>
<path d="M5.20038 5.80885C4.83484 5.80885 4.51056 5.80885 4.14501 5.80885C4.14501 5.51405 4.12732 5.23104 4.15091 4.94804C4.23345 3.96931 4.05657 3.04365 3.68513 2.13567C3.4316 1.53428 3.25472 0.909313 3.04836 0.296135C3.01888 0.213592 3.0012 0.131048 2.96582 0.00723332C3.2901 0.00723332 3.58489 -0.0104545 3.8738 0.0190252C3.95044 0.0249212 4.04478 0.160528 4.07426 0.254863C4.26882 0.915209 4.4516 1.57556 4.69923 2.24769C4.7346 2.12388 4.76998 2.00006 4.80536 1.87035C4.95275 1.32793 5.10605 0.791394 5.23576 0.248967C5.27703 0.0544009 5.36547 -0.0104545 5.55414 0.00133737C5.80767 0.0131293 6.06119 0.00723332 6.35009 0.00723332C6.30882 0.14284 6.28524 0.237175 6.25576 0.325615C5.93738 1.25128 5.6131 2.18284 5.30062 3.1085C5.24166 3.29128 5.20628 3.49174 5.20038 3.68041C5.18859 4.38203 5.20038 5.07775 5.20038 5.80885Z" fill="#363D41"/>
<path d="M9.68685 1.57563C9.73402 1.54615 9.73991 1.54026 9.74581 1.53436C10.5948 1.41055 10.6125 1.42234 10.6125 2.27136C10.6125 3.06731 10.6125 3.86326 10.6125 4.65332C10.6125 4.81841 10.5477 5.03656 10.8189 5.06014C11.0252 5.07783 11.3141 4.81251 11.3141 4.60615C11.32 3.78072 11.3141 2.95529 11.3141 2.13575C11.3141 1.94118 11.3141 1.74662 11.3141 1.51667C11.5971 1.51667 11.8566 1.49899 12.1042 1.52847C12.1631 1.53436 12.2398 1.69355 12.2398 1.78789C12.2516 2.66049 12.2457 3.53309 12.2457 4.40569C12.2457 4.86557 12.2457 5.32546 12.2457 5.80303C11.9155 5.80303 11.6325 5.80303 11.3318 5.80303C11.32 5.67921 11.3141 5.57309 11.3023 5.44338C11.1314 5.5554 10.9781 5.67332 10.8071 5.75586C10.1408 6.08603 9.66916 5.80303 9.66326 5.06604C9.65737 3.97529 9.66326 2.88453 9.66326 1.79968C9.67506 1.72303 9.68685 1.64639 9.68685 1.57563Z" fill="#363D41"/>
<path d="M8.94417 13.0729C8.92648 13.1849 8.90879 13.2498 8.897 13.3264C8.66706 13.3264 8.43712 13.3264 8.18359 13.3264C8.18359 11.6107 8.18359 9.90675 8.18359 8.17334C8.41354 8.17334 8.64348 8.17334 8.91469 8.17334C8.91469 8.69808 8.91469 9.23461 8.91469 9.81831C9.02082 9.74166 9.07388 9.70629 9.12695 9.66501C9.39226 9.46455 9.68116 9.3997 9.98186 9.5412C10.2767 9.67681 10.3651 9.95392 10.3769 10.2487C10.3887 10.6909 10.3828 11.1331 10.3828 11.5753C10.3828 11.8996 10.3828 12.2239 10.3828 12.5481C10.3828 12.8547 10.3356 13.1554 10.029 13.3028C9.69885 13.4679 9.38047 13.3913 9.09157 13.1731C9.05619 13.1554 9.02082 13.1318 8.94417 13.0729ZM8.91469 11.4397C8.91469 11.7935 8.91469 12.1472 8.91469 12.501C8.91469 12.7486 9.09157 12.8076 9.28614 12.8311C9.47481 12.8547 9.60452 12.7427 9.61041 12.5658C9.62221 11.8288 9.62221 11.0918 9.61041 10.3607C9.60452 10.1603 9.46301 10.0365 9.25076 10.0541C9.0444 10.0718 8.9088 10.1662 8.91469 10.4138C8.92648 10.7499 8.91469 11.0918 8.91469 11.4397Z" fill="white"/>
<path d="M13.1125 11.5043C12.6821 11.5043 12.2812 11.5161 11.8803 11.4984C11.6739 11.4925 11.6032 11.5633 11.615 11.7696C11.6327 11.9819 11.615 12.2 11.6268 12.4182C11.6385 12.6481 11.7329 12.8191 11.9982 12.8191C12.2635 12.8132 12.3461 12.6481 12.3579 12.4123C12.3579 12.3238 12.3696 12.2413 12.3755 12.1293C12.6232 12.1293 12.8649 12.1293 13.0948 12.1293C13.2187 12.8663 12.8531 13.3615 12.1456 13.4441C11.3968 13.5266 10.878 13.108 10.8603 12.3769C10.8426 11.7519 10.8485 11.1211 10.8603 10.4902C10.8721 9.86523 11.3261 9.44662 11.9923 9.42304C12.635 9.39945 13.0477 9.73552 13.1066 10.3782C13.1361 10.7319 13.1125 11.0975 13.1125 11.5043ZM12.3579 10.9914C12.3166 10.6317 12.4758 10.3074 12.1633 10.1188C12.0631 10.0598 11.7742 10.1011 11.7506 10.16C11.668 10.3841 11.5855 10.6612 11.6621 10.8675C11.6975 10.9619 12.0749 10.9442 12.3579 10.9914Z" fill="white"/>
<path d="M7.50563 13.3321C7.26979 13.3321 7.04574 13.3321 6.8158 13.3321C6.80401 13.2083 6.79222 13.0963 6.78043 12.9725C6.55638 13.1022 6.35592 13.2555 6.13777 13.338C5.67788 13.5208 5.34181 13.3086 5.33592 12.8133C5.31823 11.7343 5.33002 10.6554 5.33002 9.54695C5.56586 9.54695 5.7958 9.54695 6.07291 9.54695C6.07291 9.66487 6.07291 9.78868 6.07291 9.9125C6.07291 10.7143 6.07291 11.5221 6.07291 12.3239C6.07291 12.489 6.01985 12.7013 6.28517 12.7308C6.49742 12.7543 6.79222 12.5067 6.79222 12.2945C6.79811 11.7933 6.79222 11.2921 6.79222 10.791C6.79222 10.3783 6.79222 9.97146 6.79222 9.53516C7.03395 9.53516 7.258 9.53516 7.49973 9.53516C7.50563 10.8028 7.50563 12.0645 7.50563 13.3321Z" fill="white"/>
<path d="M4.9173 8.17924C4.9173 8.40328 4.9173 8.62143 4.9173 8.86317C4.71094 8.86317 4.52227 8.88085 4.3395 8.85727C4.08597 8.82779 4.00343 8.91623 4.00343 9.18155C4.01522 10.4492 4.00932 11.7168 4.00932 12.9844C4.00932 13.0906 4.00932 13.1967 4.00932 13.3205C3.72042 13.3205 3.461 13.3205 3.1662 13.3205C3.1662 11.8524 3.1662 10.3784 3.1662 8.87496C2.85372 8.87496 2.57661 8.87496 2.27002 8.87496C2.27002 8.62733 2.27002 8.41507 2.27002 8.17334C3.14262 8.17924 4.02112 8.17924 4.9173 8.17924Z" fill="white"/>
<path d="M8.91477 11.4395C8.91477 11.0975 8.92067 10.7497 8.90888 10.4077C8.90298 10.166 9.03859 10.0657 9.24495 10.0481C9.4572 10.0304 9.6046 10.1542 9.6046 10.3547C9.62229 11.0916 9.61639 11.8286 9.6046 12.5597C9.6046 12.7366 9.47489 12.8486 9.28032 12.8251C9.08575 12.8015 8.90888 12.7425 8.90888 12.4949C8.91477 12.147 8.91477 11.7933 8.91477 11.4395Z" fill="#363D41"/>
<path d="M12.3579 10.9916C12.069 10.9444 11.6975 10.968 11.6622 10.8677C11.5914 10.6614 11.674 10.3843 11.7506 10.1602C11.7742 10.1013 12.0631 10.06 12.1633 10.119C12.4758 10.3076 12.3225 10.6319 12.3579 10.9916Z" fill="#363D41"/>
</svg>
